<svg xmlns="http://www.w3.org/2000/svg" xmlns:xlink="http://www.w3.org/1999/xlink" width="14" height="18" viewBox="0 0 14 18">
    <defs>
        <path id="a" d="M0 0h14v17.36H0z"/>
    </defs>
    <g fill="none" fill-rule="evenodd">
        <mask id="b" fill="#fff">
            <use xlink:href="#a"/>
        </mask>
        <path fill="#EE5C12" stroke="#F8F8F8" stroke-width=".2" d="M1.68 14h3.36V3.36H1.68V14zm3.64 3.36a.28.28 0 0 1-.28-.28v-1.4H1.4c-.772 0-1.4-.628-1.4-1.4V3.08c0-.772.628-1.4 1.4-1.4h3.64V.28A.28.28 0 0 1 5.32 0h1.12a.28.28 0 0 1 .28.28v16.8a.28.28 0 0 1-.28.28H5.32zM9.24 15.68a.28.28 0 0 1-.28-.28v-1.12a.28.28 0 0 1 .28-.28h3.08V3.36H9.24a.28.28 0 0 1-.28-.28V1.96a.28.28 0 0 1 .28-.28h3.36c.772 0 1.4.628 1.4 1.4v11.2c0 .772-.628 1.4-1.4 1.4H9.24z" mask="url(#b)"/>
    </g>
</svg>
